<svg width="1126.194" height="855" xmlns="http://www.w3.org/2000/svg">
 <title>code review</title>

 <g>
  <title>background</title>
  <rect x="-1" y="-1" width="1128.194" height="857" id="canvas_background" fill="none"/>
 </g>
 <g>
  <title>Layer 1</title>
  <path fill="#bbbbbb" d="m544.86427,755.93794c-242.39884,-18.44657 -531.47073,-206.26628 -516.75365,-399.6574s294.68632,-373.42208 537.08515,-354.97554s381.93189,379.862 367.21481,573.25309s-145.14748,199.82642 -387.54631,181.37985z" id="svg_1"/>
  <ellipse cx="566.194" cy="747" fill="#303030" rx="506" ry="31" id="svg_2"/>
  <ellipse cx="212.194" cy="835.5" fill="#303030" rx="212.194" ry="18.5" id="svg_4"/>
  <rect width="752" height="590" x="197.17145" y="159.66369" fill="#212121" id="svg_6"/>
  <path fill="#dddddd" d="m563.63812,242.62914l-185.51772,0a2.25143,2.25143 0 1 1 0,-4.50285l185.51772,0a2.25143,2.25143 0 0 1 0,4.50285z" id="svg_7"/>
  <path fill="#dddddd" d="m766.71697,267.39486l-291.78514,0a2.25143,2.25143 0 0 1 0,-4.50286l291.78514,0a2.25143,2.25143 0 1 1 0,4.50286z" id="svg_8"/>
  <path fill="#dddddd" d="m564.53869,292.16057l-185.51772,0a2.25143,2.25143 0 1 1 0,-4.50286l185.51772,0a2.25143,2.25143 0 1 1 0,4.50286z" id="svg_9"/>
  <path fill="#dddddd" d="m766.71697,292.61086l-185.51771,0a2.25143,2.25143 0 0 1 0,-4.50286l185.51771,0a2.25143,2.25143 0 1 1 0,4.50286z" id="svg_10"/>
  <path fill="#dddddd" d="m564.98897,316.92629l-185.51771,0a2.25143,2.25143 0 0 1 0,-4.50286l185.51771,0a2.25143,2.25143 0 1 1 0,4.50286z" id="svg_11"/>
  <path fill="#dddddd" d="m565.43926,341.692l-185.51772,0a2.25143,2.25143 0 0 1 0,-4.50286l185.51772,0a2.25143,2.25143 0 1 1 0,4.50286z" id="svg_12"/>
  <path fill="#dddddd" d="m649.64269,243.07943l-53.13372,0a2.25143,2.25143 0 0 1 0,-4.50286l53.13372,0a2.25143,2.25143 0 1 1 0,4.50286z" id="svg_13"/>
  <path fill="#dddddd" d="m649.64269,316.92629l-53.13372,0a2.25143,2.25143 0 0 1 0,-4.50286l53.13372,0a2.25143,2.25143 0 1 1 0,4.50286z" id="svg_14"/>
  <path fill="#dddddd" d="m649.64269,341.24171l-53.13372,0a2.25143,2.25143 0 1 1 0,-4.50285l53.13372,0a2.25143,2.25143 0 1 1 0,4.50285z" id="svg_15"/>
  <path fill="#dddddd" d="m738.79926,341.24171l-53.13372,0a2.25143,2.25143 0 0 1 0,-4.50285l53.13372,0a2.25143,2.25143 0 1 1 0,4.50285z" id="svg_16"/>
  <path fill="#dddddd" d="m430.80383,267.39486l-53.13371,0a2.25143,2.25143 0 0 1 0,-4.50286l53.13371,0a2.25143,2.25143 0 0 1 0,4.50286z" id="svg_17"/>
  <path fill="#dddddd" d="m563.86326,607.36057l-185.51772,0a2.25143,2.25143 0 0 1 0,-4.50286l185.51772,0a2.25143,2.25143 0 0 1 0,4.50286z" id="svg_18"/>
  <path fill="#dddddd" d="m562.96269,656.892l-185.51772,0a2.25143,2.25143 0 1 1 0,-4.50286l185.51772,0a2.25143,2.25143 0 0 1 0,4.50286z" id="svg_19"/>
  <path fill="#dddddd" d="m563.41297,681.65771l-185.51771,0a2.25143,2.25143 0 1 1 0,-4.50285l185.51771,0a2.25143,2.25143 0 1 1 0,4.50285z" id="svg_20"/>
  <path fill="#dddddd" d="m642.66326,657.34229l-53.13372,0a2.25143,2.25143 0 0 1 0,-4.50286l53.13372,0a2.25143,2.25143 0 0 1 0,4.50286z" id="svg_21"/>
  <path fill="#dddddd" d="m642.66326,681.65771l-53.13372,0a2.25142,2.25142 0 0 1 0,-4.50285l53.13372,0a2.25142,2.25142 0 1 1 0,4.50285z" id="svg_22"/>
  <path fill="#dddddd" d="m731.81983,657.34229l-53.13371,0a2.25143,2.25143 0 1 1 0,-4.50286l53.13371,0a2.25143,2.25143 0 0 1 0,4.50286z" id="svg_23"/>
  <path fill="#dddddd" d="m765.51355,632.12629l-291.78515,0a2.25143,2.25143 0 0 1 0,-4.50286l291.78515,0a2.25143,2.25143 0 0 1 0,4.50286z" id="svg_24"/>
  <path stroke="null" fill="#dddddd" d="m431.02897,631.12629l-53.13371,0a2.25143,2.25143 0 0 1 0,-4.50286l53.13371,0a2.25143,2.25143 0 0 1 0,4.50286z" id="svg_25"/>
  <path fill="#dddddd" d="m766.94212,706.87371l-291.78515,0a2.25143,2.25143 0 1 1 0,-4.50285l291.78515,0a2.25142,2.25142 0 0 1 0,4.50285z" id="svg_26"/>
  <path fill="#dddddd" d="m431.02897,706.87371l-53.13371,0a2.25143,2.25143 0 1 1 0,-4.50285l53.13371,0a2.25143,2.25143 0 1 1 0,4.50285z" id="svg_27"/>
  <polygon fill="#1e50bc" points="519.0599975585938,400.1300048828125 447.0140075683594,471.2749938964844 519.0599975585938,542.4199829101562 535.27001953125,526.2100219726562 480.7860107421875,471.7250061035156 535.719970703125,416.7900085449219 519.0599975585938,400.1300048828125 " id="svg_28"/>
  <polygon fill="#1e50bc" points="624.3270263671875,401.1300048828125 696.3729858398438,472.2749938964844 624.3270263671875,543.4199829101562 608.1170043945312,527.2100219726562 662.6019897460938,472.7250061035156 607.6669921875,417.7900085449219 624.3270263671875,401.1300048828125 " id="svg_29"/>
  <circle cx="216.194" cy="176" r="9" fill="#1e50bc" id="svg_30"/>
  <circle cx="240.194" cy="176" r="9" fill="#1e50bc" id="svg_31"/>
  <circle cx="264.194" cy="176" r="9" fill="#1e50bc" id="svg_32"/>
  <rect width="752" height="3" x="196.194" y="192" opacity="0.1" id="svg_33"/>
  <path fill="#bbbbbb" d="m1126.19354,607.45357c0,63.77108 -37.91089,86.03756 -84.67635,86.03756s-84.67635,-22.26648 -84.67635,-86.03756s84.67635,-144.898 84.67635,-144.898s84.67635,81.12692 84.67635,144.898z" id="svg_34"/>
  <polygon fill="#303030" points="1038.433 683.736 1039.3 630.365 1075.391 564.338 1039.436 621.993 1039.826 597.995 1064.699 550.226 1039.929 591.645 1039.929 591.645 1040.63 548.484 1067.265 510.453 1040.74 541.697 1041.178 462.556 1038.425 567.325 1038.651 563.003 1011.571 521.552 1038.217 571.3 1035.694 619.503 1035.619 618.223 1004.4 574.602 1035.524 622.743 1035.209 628.771 1035.152 628.862 1035.178 629.357 1028.776 751.653 1037.329 751.653 1038.355 688.485 1069.404 640.461 1038.433 683.736" id="svg_35"/>
  <path fill="#050505" d="m123.68541,746.10544a43.12568,43.12568 0 0 1 -8.17805,3.50253c-5.07883,1.38739 -10.50718,0.8784 -15.63716,2.06274c-2.10034,0.4849 -4.38629,1.49916 -5.05424,3.54866c-0.48995,1.50331 0.04306,3.12668 0.55347,4.62317c5.66852,16.61991 9.08515,34.26625 18.12518,49.32052a74.64075,74.64075 0 0 0 13.99269,16.98766c2.05512,1.85228 4.38405,3.6643 7.13541,3.95491a7.24769,7.24769 0 0 0 7.37055,-10.182c-0.81056,-1.8011 -2.31727,-3.19619 -3.289,-4.91569a18.757,18.757 0 0 1 -1.81948,-6.99071c-0.89312,-7.10831 -1.7535,-14.53764 0.70942,-21.26517c1.6519,-4.5122 4.68207,-8.35894 7.20641,-12.4475s4.62171,-8.7719 4.06,-13.544c-0.38332,-3.25659 -1.97189,-6.23685 -3.65,-9.054c-1.68146,-2.8227 -5.00472,-10.40837 -8.38287,-11.35035c-3.50667,-0.9778 -10.08414,4.1819 -13.14233,5.74923z" id="svg_36" stroke="#191919"/>
  <path fill="#050505" d="m216.02746,808.50007a14.01882,14.01882 0 0 1 -0.66321,4.74531c-1.05756,2.79253 -3.681,4.70608 -5.03631,7.36685c-1.885,3.70061 -1.03063,8.17372 0.21823,12.13454c0.78295,2.48316 1.8099,5.067 3.91246,6.60271a12.89278,12.89278 0 0 0 5.95383,1.90719c18.03627,2.49619 36.35793,1.064 54.5586,1.587c3.31731,0.09532 6.82944,0.21147 9.72521,-1.40969s4.686,-5.6968 2.71651,-8.36789c-1.76854,-2.39854 -5.26537,-2.37621 -8.24208,-2.51756a33.912,33.912 0 0 1 -20.913,-8.61479a15.11172,15.11172 0 0 1 -2.93335,-3.37658a20.75292,20.75292 0 0 1 -1.53436,-3.51757a156.79876,156.79876 0 0 0 -9.08354,-20.11857c-0.97877,-1.81492 -2.087,-3.705 -3.906,-4.67631a10.32271,10.32271 0 0 0 -4.23932,-0.92554c-4.53631,-0.294 -16.28319,-1.83785 -19.791,1.68963c-3.24111,3.25934 -0.67081,13.35151 -0.74267,17.49127z" id="svg_37"/>
  <circle cx="242.971" cy="377.28902" r="28.975" fill="#fbbebe" id="svg_38" stroke="null"/>
  <path fill="#fbbebe" d="m216.80577,400.64584c-1.72342,4.6139 -4.64671,8.94711 -8.90039,11.42995l40.0746,8.17466a42.45319,42.45319 0 0 1 -0.56181,-17.869a10.30012,10.30012 0 0 0 0.23975,-4.409c-0.75354,-2.90746 -4.02646,-4.30693 -6.95489,-4.97449c-7.31406,-1.66731 -13.7821,-2.56141 -20.57892,-5.79173c-2.07754,3.55656 -1.78665,9.33902 -3.31834,13.43961z" id="svg_39"/>
  <path fill="#050505" d="m207.57062,401.22685a31.33845,31.33845 0 0 1 27.31312,0.71368c5.13776,2.70749 9.39191,6.79432 13.57151,10.82645c3.85264,3.71671 7.96244,7.97238 8.23588,13.31859c0.13245,2.58993 -0.67591,5.12286 -1.08406,7.68385a25.76566,25.76566 0 0 0 13.78,26.46946c3.1836,5.30339 3.84065,11.7287 3.88948,17.91408c0.185,23.43592 -7.20915,47.16094 -1.93041,69.99538c1.23937,5.36117 3.16161,10.55391 4.2323,15.95129c1.38681,6.991 1.31835,14.17959 2.04391,21.26977a95.26625,95.26625 0 0 0 5.11322,22.49547c-1.744,2.7737 -5.37357,3.83728 -8.64228,3.61264s-6.3252,-1.64311 -9.24191,-3.13567c-14.12327,-7.22727 -27.05918,-16.75729 -41.687,-22.89955c-9.67764,-4.06367 -19.98746,-6.59488 -29.37589,-11.28823s-18.11988,-12.14194 -20.99049,-22.238c-1.24124,-4.36546 -1.31765,-8.96508 -1.3854,-13.50306c-0.28534,-19.11376 -0.55046,-38.43617 3.61,-57.09382c3.669,-16.45362 10.74145,-32.1938 12.28438,-48.98077c0.50223,-5.46424 0.51295,-11.31378 3.56594,-15.87332c4.3152,-6.44464 13.63248,-8.11366 16.6977,-15.23824z" id="svg_40"/>
  <path fill="#090909" d="m226.49157,377.12932c1.70735,-2.22683 5.00024,-2.53051 7.72786,-1.87181s5.24265,2.06449 7.99738,2.59858a4.67544,4.67544 0 0 0 3.74325,-0.52575a5.44429,5.44429 0 0 0 1.61547,-3.57028a68.16318,68.16318 0 0 0 0.67089,-17.38048a5.14652,5.14652 0 0 1 0.15877,-2.43744c0.682,-1.6434 2.7627,-2.03456 4.46209,-2.56176a13.31574,13.31574 0 0 0 9.01289,-13.63308a5.42087,5.42087 0 0 0 -1.6567,-3.74055c-1.17523,-0.95765 -2.82014,-1.01649 -4.33609,-1.02867q-11.68307,-0.09382 -23.36661,0.00565c-2.88278,0.02455 -5.91029,0.09552 -8.40937,1.53276c-1.84769,1.06263 -3.22171,2.773 -4.88046,4.11154c-4.32621,3.49111 -10.17785,4.20145 -15.44116,5.99071a15.30822,15.30822 0 0 0 -6.76753,4.03565c-1.75035,1.99965 -2.5919,4.97311 -1.49261,7.39258a26.25205,26.25205 0 0 0 1.88685,2.9039c3.10463,4.96416 1.03778,11.40306 1.50139,17.23972c0.57892,7.28838 11.36495,19.11157 18.67879,20.83626c11.80771,2.78439 4.9861,-15.11326 8.8949,-19.89753z" id="svg_41"/>
  <path fill="#050505" d="m210.13427,693.82546c0.74512,5.32168 1.7007,10.66172 1.44525,16.02924c-0.35664,7.49365 -3.05912,14.71381 -3.55872,22.19929c-0.37315,5.59084 0.48989,11.24214 -0.28652,16.79137c-0.49715,3.55325 -1.65585,6.97849 -2.37315,10.49392a43.39491,43.39491 0 0 0 6.97307,33.26545a5.44788,5.44788 0 0 0 2.02339,1.961a5.7137,5.7137 0 0 0 2.50788,0.3318a179.9472,179.9472 0 0 0 25.17023,-2.28749a2.41432,2.41432 0 0 0 1.61622,-0.71311a2.26567,2.26567 0 0 0 0.351,-0.954c1.54379,-7.936 -1.97676,-15.89332 -2.872,-23.92837c-0.95593,-8.57968 1.10271,-17.17733 3.14612,-25.56477a113.54767,113.54767 0 0 1 3.46738,-12.22773c0.9877,-2.69735 2.18054,-5.32086 3.0366,-8.06284a61.46035,61.46035 0 0 0 2.202,-13.20261q0.89161,-10.57524 0.94476,-21.19892a88.95779,88.95779 0 0 0 -1.66511,-20.01c-1.878,-8.338 -5.7238,-16.08066 -9.53591,-23.73028a15.02852,15.02852 0 0 0 -5.61784,2.67008a125.37991,125.37991 0 0 1 -15.35,8.48057c-3.56655,1.65676 -10.52195,2.83342 -12.78554,6.28577c-2.23228,3.40461 -0.792,10.35082 -0.62145,14.10572q0.43903,9.66756 1.78234,19.26591z" id="svg_42"/>
  <path fill="#050505" d="m170.96115,583.018c-3.84776,10.35941 1.80816,21.55375 6.722,31.45209c12.106,24.38615 20.51267,50.40745 28.87447,76.31727c0.62635,1.9408 1.2522,4.05818 0.55393,5.97428a7.82535,7.82535 0 0 1 -2.82176,3.347c-5.76549,4.37915 -13.10677,5.93873 -19.97473,8.2298a90.18354,90.18354 0 0 0 -18.94265,8.87995c-4.97678,3.08387 -9.63891,6.64386 -14.29189,10.1975l-14.812,11.31248a9.903,9.903 0 0 0 -2.47578,2.39658c-1.4286,2.24131 -0.84344,5.16734 -0.13218,7.72829a131.43212,131.43212 0 0 0 7.25213,19.792a6.911,6.911 0 0 0 2.63,3.44664c2.31193,1.24241 5.13971,-0.405 6.90515,-2.34714s3.29242,-4.35894 5.78108,-5.1927c2.48574,-0.83278 5.2216,0.17573 7.81767,-0.18871c4.19867,-0.58943 6.98621,-4.45724 10.01273,-7.42649c12.36533,-12.13133 33.01009,-11.25124 46.61244,-21.97723a59.22781,59.22781 0 0 1 6.231,-4.86753c2.29954,-1.35929 4.90732,-2.10533 7.29316,-3.30673c7.25663,-3.65411 11.81865,-11.20854 14.26244,-18.957s3.14074,-15.92786 4.89686,-23.86053c0.90786,-4.10092 2.10291,-8.15769 2.50676,-12.33845a66.09392,66.09392 0 0 0 -0.25308,-11.6661l-4.90813,-60.71545c-0.3996,-4.94331 -0.79987,-9.89239 -1.57574,-14.79076c-14.57664,0.5211 -29.14284,1.10754 -43.72778,1.28c-11.60557,0.13717 -23.42439,0.94848 -34.4361,-2.71906z" id="svg_44" stroke="null"/>
  <path fill="#050505" d="m165.6025,596.221c1.97737,3.18011 6.79016,3.11442 10.10427,1.37092s5.8888,-4.67259 9.21071,-6.40118c4.46387,-2.32282 9.74611,-2.23547 14.77617,-2.0934c7.96357,0.22492 16.02491,0.46432 23.68692,2.64671c7.92486,2.25727 15.63969,6.60332 23.834,5.7363c1.4259,-0.15087 2.98505,-0.55979 3.76106,-1.76551a5.54448,5.54448 0 0 0 0.61966,-2.83582l0.26794,-7.159a6.46407,6.46407 0 0 0 -0.57,-3.62533a6.08162,6.08162 0 0 0 -2.71588,-2.07944c-11.66338,-5.64612 -24.96458,-6.69742 -37.91511,-7.14107q-9.87458,-0.33828 -19.75748,-0.27827c-5.591,0.03409 -12.303,-0.77486 -17.73873,0.71906c-7.2951,2.00497 -11.26456,16.95386 -7.56353,22.90603z" id="svg_45"/>
  <path fill="#1e50bc" d="m238.83926,409.72556c-15.28217,-0.13537 -29.131,-10.22251 -44.4118,-10.46824a11.51447,11.51447 0 0 0 -5.39263,0.93046c-2.12932,1.07263 -3.52928,3.14668 -5.14679,4.89829c-4.51828,4.89285 -11.0612,7.50531 -15.703,12.28109c-4.35234,4.47793 -6.77287,11.14957 -5.05456,17.15307s8.20353,10.60849 14.279,9.16523a36.80081,36.80081 0 0 1 14.33684,-19.47946a72.88717,72.88717 0 0 1 11.20533,-5.88209c6.86792,-3.11167 14.54778,-6.28282 21.71787,-3.95031a30.63793,30.63793 0 0 1 7.40918,4.04034l11.95388,8.03c-1.39288,-5.494 -2.64537,-11.65557 -5.19332,-16.71838z" id="svg_46" stroke="null"/>
  <path fill="#1e50bc" d="m175.6492,438.37394c-2.0293,2.53158 0.894,6.19965 0.44656,9.41317c-0.29726,2.13512 -2.05431,3.76539 -2.786,5.79313c-0.75791,2.10039 -0.356,4.427 -0.64344,6.64132a28.48866,28.48866 0 0 1 -1.2751,4.72964a84.97452,84.97452 0 0 0 -2.68638,14.02574l-2.6749,19.97555a75.68111,75.68111 0 0 0 -0.846,9.07789a27.10744,27.10744 0 0 1 -0.45211,6.78677c-0.59232,2.183 -1.90386,4.09275 -2.78616,6.17547s-1.29127,4.602 -0.09937,6.52435c-3.99144,3.32456 -5.17826,9.85376 -2.38732,14.235a7.89943,7.89943 0 0 1 1.23013,2.26518a5.81983,5.81983 0 0 1 -0.54176,3.34034l-2.7047,7.20665c-0.69232,1.84469 -0.91128,4.65314 1.01352,5.07422a17.00617,17.00617 0 0 0 -3.65133,5.76681a6.86617,6.86617 0 0 0 0.97247,6.50559a8.28879,8.28879 0 0 1 1.69441,2.0563a5.47266,5.47266 0 0 1 -0.19586,3.24315a11.90573,11.90573 0 0 0 1.473,9.33345a8.37146,8.37146 0 0 0 8.41846,3.60852c5.41045,-1.22031 10.27226,-3.1467 15.72755,-2.14571c11.746,2.15529 23.52979,4.31989 34.90618,7.952c12.984,4.1454 25.55606,10.22443 39.12586,11.50045a3.79783,3.79783 0 0 0 2.61662,-0.407a3.93069,3.93069 0 0 0 1.21,-2.48763q2.097,-9.83241 4.19405,-19.66481a202.36327,202.36327 0 0 0 3.85525,-22.02765c0.47742,-4.78125 0.61351,-9.58923 0.7493,-14.39234l1.08084,-38.23106a38.19731,38.19731 0 0 0 -2.2,-16.61961l-6.21748,-19.8483c-3.54813,-11.32685 -11.68773,-21.37125 -14.58576,-32.8816c-1.83417,-7.285 -3.18913,-15.10292 -8.10789,-20.781c-7.01237,-8.09492 -19.1447,-9.354 -29.76373,-7.96222c-4.79727,0.62876 -9.63561,1.71382 -13.78522,4.20176c-4.79825,2.87682 -8.33308,7.40861 -11.75286,11.8363c-2.81837,3.64905 -5.68703,6.5826 -8.57083,10.18018z" id="svg_47"/>
  <path fill="#fbbebe" d="m200.44412,550.82348c0.87491,3.77256 2.71233,7.25107 3.837,10.95684c1.88437,6.20878 1.72443,12.89561 3.60511,19.10551c0.78937,2.60646 1.93305,5.109 2.49961,7.77276c1.32091,6.21057 -0.60773,12.6356 -3.0035,18.51576s-5.31347,11.678 -6.0912,17.97962c-0.54778,4.43849 0.23913,9.45012 3.66018,12.33051c3.55169,2.99038 8.71308,2.78787 13.33894,2.39a14.01584,14.01584 0 0 0 4.84121,-1.00807c3.53766,-1.67361 5.02767,-5.85984 5.85461,-9.685c2.77128,-12.81912 1.97957,-26.10621 1.17422,-39.19671l-2.10613,-34.2342c-0.40547,-6.59081 -0.83988,-13.31809 -2.87081,-19.64644c-0.73878,-2.302 -2.02646,-6.95382 -4.12917,-8.42371c-2.0826,-1.45584 -8.02994,-1.52068 -10.60853,-1.64177c-12.09781,-0.56814 -11.96219,16.31742 -10.00154,24.7849z" id="svg_48"/>
  <path fill="#050505" d="m213.84814,424.4235c-2.47072,-1.29382 -5.58357,-0.736 -7.97179,0.70446a24.56772,24.56772 0 0 0 -5.9719,5.79818c-5.33892,6.51687 -10.99072,13.99464 -10.19889,22.38194c0.29689,3.14472 1.501,6.12087 2.31737,9.17226c3.57944,13.37964 -0.37874,27.53015 0.07542,41.37287c0.26243,7.99873 2.00293,15.86638 3.7363,23.67945c0.35375,1.59451 0.92034,3.44035 2.46284,3.97727c1.15873,0.40334 2.41033,-0.11521 3.55715,-0.55127a28.371,28.371 0 0 1 25.96313,3.27234c2.865,-1.52869 1.79145,-6.36261 1.14913,-9.54579c-1.90842,-9.45767 0.68218,-19.21438 3.82837,-28.3353s6.91058,-18.23032 7.43185,-27.86453c0.59061,-10.91607 -3.02875,-21.57071 -6.59987,-31.903c-0.77948,-2.25528 -1.63134,-4.6202 -3.43861,-6.17831a13.66523,13.66523 0 0 0 -5.20292,-2.377c-3.79313,-1.12113 -7.63356,-1.76865 -11.13758,-3.60357z" id="svg_49"/>
  <line fill="none" stroke-width="null" stroke-opacity="null" fill-opacity="null" x1="258.097" y1="365" x2="264.097" y2="359" id="svg_50" stroke-linejoin="null" stroke-linecap="null" stroke="null"/>
  <ellipse stroke="null" fill="#090909" stroke-width="null" stroke-opacity="null" cx="266.48874" cy="371.96804" id="svg_54" rx="3.68493" ry="8"/>
  <rect fill="#090909" stroke-width="null" x="235.81983" y="370.38617" width="27.63766" height="2.60416" id="svg_68"/>
 </g>
</svg>